<?xml version="1.0" encoding="UTF-8"?>
<svg id="Layer_1" data-name="Layer 1" xmlns="http://www.w3.org/2000/svg" viewBox="0 0 247.24 225.3">
  <defs>
    <style>
      .cls-1 {
        fill: #f58220;
      }

      .cls-1, .cls-2, .cls-3, .cls-4 {
        stroke-width: 0px;
      }

      .cls-2 {
        fill: #807bba;
      }

      .cls-3 {
        fill: #f38db3;
      }

      .cls-4 {
        fill: #e81d25;
      }
    </style>
  </defs>
  <g id="Submark">
    <g id="Submark_with_sparkle" data-name="Submark with sparkle">
      <g id="Submark_with_multicolor_sparkle_in_pink_bg" data-name="Submark with multicolor sparkle in pink bg">
        <g id="Logo">
          <path class="cls-2" d="m53.85,186.33c-8.47,3.66-11.78,7.96-14.6,18.97-.5,1.95-2.62,1.95-3.11,0-2.82-11.01-6.13-15.3-14.6-18.97-1.5-.65-1.5-3.4,0-4.05,8.47-3.66,11.78-7.96,14.6-18.97.5-1.95,2.62-1.95,3.11,0,2.82,11.01,6.13,15.3,14.6,18.97,1.5.65,1.5,3.4,0,4.05Z"/>
          <path class="cls-3" d="m205.26,208.54c-5.26,2.28-7.31,4.94-9.07,11.78-.31,1.21-1.62,1.21-1.93,0-1.75-6.84-3.81-9.5-9.07-11.78-.93-.4-.93-2.11,0-2.51,5.26-2.28,7.31-4.94,9.07-11.78.31-1.21,1.62-1.21,1.93,0,1.75,6.84,3.81,9.5,9.07,11.78.93.4.93,2.11,0,2.51Z"/>
          <path class="cls-1" d="m186.62,24.31c-8.41,3.64-11.7,7.91-14.5,18.84-.5,1.93-2.6,1.93-3.09,0-2.8-10.93-6.09-15.2-14.5-18.84-1.49-.64-1.49-3.37,0-4.02,8.41-3.64,11.7-7.91,14.5-18.84.5-1.93,2.6-1.93,3.09,0,2.8,10.93,6.09,15.2,14.5,18.84,1.49.64,1.49,3.37,0,4.02Z"/>
          <path class="cls-4" d="m131.8,123.56c.03-7.07.06-14.14.09-21.22h0s-2.3,3.62-2.35,3.82c-1.7,6.93-5.69,12.88-11.96,17.84-7.39,5.82-15.46,8.73-24.22,8.73-8.24,0-15.93-2.12-23.09-6.37-7.16-4.25-12.98-9.82-17.45-16.72-4.48-6.9-6.91-14.46-7.3-22.7l-.1-7.45c0-21.18,3.35-37.37,10.05-48.59,6.7-11.21,16-17.17,27.9-17.89h.78c5.36,0,9.05,3.07,11.08,9.22,1.37,4.05,2.22,9.58,2.55,16.57l.39,4.61c.59,4.45,2.14,7.99,4.66,10.64,2.52,2.65,5.36,4.56,8.53,5.74,3.17,1.18,6,1.77,8.48,1.77s5.29-.82,8.63-2.45c6.21-3.01,9.45-8.2,9.71-15.59,0-8.56-2.49-16.03-7.45-22.41-4.97-6.37-11.8-11.31-20.49-14.81-8.69-3.5-18.63-5.25-29.81-5.25-16.02,0-30.46,3.92-43.34,11.77-11.31,6.93-20.31,16.03-27.01,27.31C3.35,51.41,0,63.78,0,77.25s3.61,26.85,10.84,38.39c7.22,11.54,16.93,20.74,29.12,27.6,12.19,6.86,25.71,10.3,40.55,10.3,9.02,0,17.98-2.01,26.87-6.03,13.18-5.96,20.87-14.49,22.6-16.47.47-.54.84-.99,1.1-1.3.24-2.06.48-4.11.73-6.17Z"/>
          <path class="cls-4" d="m240.93,90.42c-4.23-8.03-9.86-14.43-16.88-19.19-7.04-4.78-14.86-7.16-23.47-7.16-4.31,0-8.63.91-12.99,2.7-4.36,1.81-7.89,4.02-10.56,6.63v-5.14h-24.21c-18.51-.28-33.01,1.79-42.92,3.79-6.26,1.27-11.89,2.75-17.42,7.07-2.57,2.01-10.1,8.71-11.97,19.7-.52,3.06-1.54,9.08,1.9,14.22,5.41,8.07,19.03,9.8,24.59,4.82,3.3-2.95,1.31-6.08,4.42-18.33,2.22-8.76,3.87-14.93,9.04-18.25,4.56-2.93,9.98-2.45,13.28-1.79,1.04.45,2.02,1.13,2.89,2.04,1.74,1.79,2.61,3.98,2.61,6.53l.09,110.29c0,3.78-.87,6.84-2.63,9.2-1.74,2.36-3.85,4.19-6.33,5.5-2.45,1.3-4.87,2.19-7.23,2.66-2.36.45-4.17.7-5.46.7-2.44,0-4.99-.94-7.63-2.8-2.64-1.87-3.97-3.81-3.97-5.85,0-1.62,1.19-3.04,3.57-4.23,2.4-1.19,4.15-2.93,5.29-5.23s1.7-4.76,1.7-7.37-.53-5.17-1.57-7.69c-1.06-2.49-2.55-4.53-4.5-6.1-1.94-1.57-3.87-2.7-5.76-3.36-1.89-.66-3.76-1-5.63-1-4.19,0-7.91,1.3-11.16,3.93-5.76,4.65-8.65,11.22-8.65,19.72,0,4.89,1.36,9.54,4.06,13.96,2.7,4.42,7.06,8.01,13.05,10.78,5.99,2.76,13.96,4.14,23.89,4.14,6.46,0,13.03-1.23,19.68-3.66,6.67-2.44,12.77-5.8,18.32-10.08,5.55-4.27,10.05-9.24,13.48-14.92,3.44-5.67,5.16-11.77,5.16-18.26v-15.11c7.08,4.89,14.94,7.33,23.55,7.33s16.43-2.4,23.47-7.23c7.03-4.83,12.65-11.29,16.88-19.41,4.21-8.12,6.31-17.05,6.31-26.82s-2.1-18.68-6.31-26.7Zm-33.63,48.19c-2.04,6.5-4.78,11.67-8.21,15.54-3.42,3.85-7.27,5.8-11.5,5.8-3.04-.11-5.55-1.25-7.55-3.4-2-2.15-3-4.74-3-7.78v-62.98c0-3.02,1-5.61,3-7.76,2-2.15,4.51-3.29,7.55-3.4,4.23,0,8.08,1.91,11.5,5.76,3.44,3.83,6.18,8.97,8.21,15.39,2.02,6.42,3.04,13.56,3.04,21.42s-1.02,14.94-3.04,21.42Z"/>
        </g>
      </g>
    </g>
  </g>
</svg>